<svg width="70" height="40" viewBox="0 0 70 40" fill="none" xmlns="http://www.w3.org/2000/svg">
<path fill-rule="evenodd" clip-rule="evenodd" d="M15.8678 0H0V4.44444H15.8678L15.8678 4.49257C16.9021 4.49257 17.9264 4.66376 18.882 4.99637C19.8377 5.32899 20.706 5.8165 21.4374 6.43109C22.1688 7.04568 22.749 7.77531 23.1448 8.5783C23.5406 9.3813 23.7444 10.242 23.7444 11.1111C23.7444 11.9803 23.5406 12.8409 23.1448 13.6439C22.749 14.4469 22.1688 15.1765 21.4374 15.7911C20.706 16.4057 19.8377 16.8932 18.882 17.2258C17.9264 17.5585 16.9021 17.7297 15.8678 17.7297L15.8678 17.7778H0V22.2222L15.8678 22.2222C16.1048 22.2222 16.3416 22.2169 16.5778 22.2062C17.383 22.2666 18.174 22.4295 18.9233 22.6903C19.8921 23.0275 20.7723 23.5217 21.5137 24.1447C22.2552 24.7677 22.8433 25.5074 23.2446 26.3214C23.6458 27.1354 23.8524 28.0078 23.8524 28.8889C23.8524 29.77 23.6458 30.6424 23.2446 31.4564C22.8433 32.2704 22.2552 33.0101 21.5137 33.6331C20.7723 34.2561 19.8921 34.7503 18.9233 35.0875C17.9546 35.4246 16.9163 35.5982 15.8678 35.5982L15.8678 35.5556H0V40H15.8678C17.6042 40 19.3237 39.7126 20.928 39.1542C22.5323 38.5958 23.9901 37.7774 25.2179 36.7456C26.4458 35.7139 27.4198 34.489 28.0844 33.1409C28.7489 31.7929 29.0909 30.348 29.0909 28.8889C29.0909 27.4298 28.7489 25.9849 28.0844 24.6369C27.4198 23.2888 26.4458 22.0639 25.2179 21.0321C24.7745 20.6595 24.3011 20.3148 23.8016 20C24.3011 19.6852 24.7745 19.3405 25.2179 18.9679C26.4458 17.9361 27.4198 16.7112 28.0844 15.3632C28.7489 14.0151 29.0909 12.5702 29.0909 11.1111C29.0909 9.65198 28.7489 8.20714 28.0844 6.85907C27.4198 5.51101 26.4458 4.28613 25.2179 3.25437C23.9901 2.22261 22.5324 1.40417 20.928 0.845783C19.3237 0.287397 17.6043 0 15.8678 0Z" fill="white"/>
<path fill-rule="evenodd" clip-rule="evenodd" d="M56.7129 0H40.9091V4.34506H56.7129V0ZM56.7129 0C58.4424 0 60.155 0.280971 61.7528 0.826869C63.3507 1.37277 64.8025 2.1729 66.0254 3.18159C67.2484 4.19028 68.2185 5.38777 68.8803 6.70569C69.5422 8.02361 69.8828 9.43614 69.8828 10.8626C69.8828 12.2891 69.5422 13.7017 68.8803 15.0196C68.2185 16.3375 67.2484 17.535 66.0254 18.5437C65.5838 18.908 65.1123 19.245 64.6149 19.5528C65.1123 19.8605 65.5838 20.1975 66.0254 20.5618C67.2484 21.5705 68.2185 22.768 68.8803 24.0859C69.5422 25.4038 69.8828 26.8164 69.8828 28.2429H64.6654C64.6654 27.3815 64.4597 26.5286 64.06 25.7328C63.6604 24.937 63.0746 24.2139 62.3362 23.6048C61.5977 22.9957 60.721 22.5126 59.7562 22.1829C59.0098 21.9279 58.222 21.7687 57.4201 21.7096C57.1849 21.72 56.9491 21.7253 56.7129 21.7253L56.7129 17.3332C57.7431 17.3332 58.7633 17.1658 59.715 16.8406C60.6668 16.5155 61.5316 16.0388 62.2601 15.438C62.9886 14.8372 63.5664 14.1239 63.9607 13.3388C64.3549 12.5538 64.5578 11.7124 64.5578 10.8626C64.5578 10.0129 64.3549 9.17152 63.9607 8.38647C63.5664 7.60143 62.9886 6.88812 62.2601 6.28728C61.5316 5.68643 60.6668 5.20982 59.715 4.88464C58.7633 4.55947 57.7431 4.3921 56.7129 4.3921V0ZM40.9091 17.3802H56.7129V21.7253H40.9091V17.3802ZM64.7321 28.2717V40H70V28.2717H64.7321Z" fill="white"/>
</svg>
