<svg width="77" height="45" viewBox="0 0 77 45" fill="none" xmlns="http://www.w3.org/2000/svg">
<path fill-rule="evenodd" clip-rule="evenodd" d="M17.4545 0H0V5H17.4545L17.4545 5.05414C18.5924 5.05414 19.719 5.24673 20.7702 5.62092C21.8214 5.99511 22.7766 6.54357 23.5811 7.23498C24.3857 7.92639 25.0239 8.74722 25.4593 9.65059C25.8947 10.554 26.1188 11.5222 26.1188 12.5C26.1188 13.4778 25.8947 14.446 25.4593 15.3494C25.0239 16.2528 24.3857 17.0736 23.5811 17.765C22.7766 18.4564 21.8214 19.0049 20.7702 19.3791C19.719 19.7533 18.5924 19.9459 17.4545 19.9459L17.4545 20H0V25H17.4545C17.7153 25 17.9758 24.994 18.2356 24.982C19.1213 25.0499 19.9914 25.2332 20.8157 25.5266C21.8813 25.9059 22.8495 26.4619 23.6651 27.1628C24.4807 27.8637 25.1276 28.6958 25.569 29.6115C26.0104 30.5273 26.2376 31.5088 26.2376 32.5C26.2376 33.4912 26.0104 34.4727 25.569 35.3885C25.1276 36.3042 24.4807 37.1363 23.6651 37.8372C22.8495 38.5381 21.8813 39.0941 20.8157 39.4734C19.7501 39.8527 18.6079 40.0479 17.4545 40.0479L17.4545 40H0V45H17.4545C19.3647 45 21.2561 44.6767 23.0208 44.0485C24.7856 43.4203 26.3891 42.4996 27.7397 41.3388C29.0904 40.1781 30.1618 38.8001 30.8928 37.2835C31.6238 35.767 32 34.1415 32 32.5C32 30.8585 31.6238 29.233 30.8928 27.7165C30.1618 26.1999 29.0904 24.8219 27.7397 23.6612C27.252 23.242 26.7312 22.8541 26.1818 22.5C26.7312 22.1459 27.252 21.758 27.7397 21.3388C29.0904 20.1781 30.1618 18.8001 30.8928 17.2835C31.6238 15.767 32 14.1415 32 12.5C32 10.8585 31.6238 9.23303 30.8928 7.71646C30.1618 6.19989 29.0904 4.8219 27.7397 3.66117C26.3891 2.50043 24.7856 1.57969 23.0208 0.951506C21.2561 0.323322 19.3647 0 17.4545 0Z" fill="white"/>
<path fill-rule="evenodd" clip-rule="evenodd" d="M62.3842 0H45V4.88819H62.3842V0ZM62.3842 0C64.2867 0 66.1705 0.316092 67.9281 0.930228C69.6857 1.54436 71.2828 2.44452 72.628 3.57929C73.9732 4.71407 75.0403 6.06124 75.7683 7.5439C76.4964 9.02656 76.8711 10.6157 76.8711 12.2205C76.8711 13.8253 76.4964 15.4144 75.7683 16.897C75.0403 18.3797 73.9732 19.7269 72.628 20.8617C72.1422 21.2715 71.6235 21.6507 71.0763 21.9969C71.6235 22.343 72.1422 22.7222 72.628 23.1321C73.9732 24.2668 75.0403 25.614 75.7683 27.0967C76.4964 28.5793 76.8711 30.1684 76.8711 31.7732H71.1319C71.1319 30.8042 70.9056 29.8446 70.466 28.9494C70.0264 28.0541 69.3821 27.2406 68.5698 26.5554C67.7575 25.8702 66.7931 25.3266 65.7318 24.9558C64.9108 24.6689 64.0442 24.4897 63.1621 24.4233C62.9033 24.4351 62.644 24.4409 62.3842 24.4409L62.3842 19.4998C63.5175 19.4998 64.6396 19.3115 65.6866 18.9457C66.7335 18.5799 67.6848 18.0437 68.4861 17.3678C69.2874 16.6918 69.9231 15.8893 70.3567 15.0062C70.7904 14.123 71.0136 13.1764 71.0136 12.2205C71.0136 11.2645 70.7904 10.318 70.3567 9.43478C69.9231 8.55161 69.2874 7.74914 68.4861 7.07319C67.6848 6.39724 66.7335 5.86105 65.6866 5.49522C64.6396 5.1294 63.5175 4.94112 62.3842 4.94112V0ZM45 19.5528H62.3842V24.4409H45V19.5528ZM71.2053 31.8056V45H77V31.8056H71.2053Z" fill="white"/>
</svg>
