<svg width="41" height="29" viewBox="0 0 41 29" fill="none" xmlns="http://www.w3.org/2000/svg">
<path fill-rule="evenodd" clip-rule="evenodd" d="M9.29398 0H0V3.22222H9.29398V3.25711C9.89983 3.25711 10.4997 3.38123 11.0595 3.62237C11.6192 3.86352 12.1278 4.21697 12.5562 4.66254C12.9846 5.10812 13.3244 5.6371 13.5562 6.21927C13.7881 6.80145 13.9074 7.42542 13.9074 8.05556C13.9074 8.6857 13.7881 9.30967 13.5562 9.89184C13.3244 10.474 12.9846 11.003 12.5562 11.4486C12.1278 11.8941 11.6192 12.2476 11.0595 12.4887C10.4997 12.7299 9.89983 12.854 9.29398 12.854L9.29398 12.8889H0V16.1111H9.29398C9.43284 16.1111 9.57151 16.1072 9.70985 16.0995C10.1815 16.1433 10.6448 16.2614 11.0837 16.4505C11.6511 16.6949 12.1666 17.0532 12.6009 17.5049C13.0352 17.9566 13.3797 18.4928 13.6147 19.083C13.8497 19.6731 13.9707 20.3057 13.9707 20.9444C13.9707 21.5832 13.8497 22.2157 13.6147 22.8059C13.3797 23.3961 13.0352 23.9323 12.6009 24.384C12.1666 24.8357 11.6511 25.194 11.0837 25.4384C10.5163 25.6829 9.90813 25.8087 9.29398 25.8087L9.29398 25.7778H0V29H9.29398C10.3111 29 11.3182 28.7916 12.2579 28.3868C13.1975 27.982 14.0513 27.3886 14.7705 26.6406C15.4897 25.8926 16.0602 25.0045 16.4494 24.0272C16.8386 23.0498 17.039 22.0023 17.039 20.9444C17.039 19.8866 16.8386 18.8391 16.4494 17.8617C16.0602 16.8844 15.4897 15.9963 14.7705 15.2483C14.5108 14.9782 14.2335 14.7282 13.941 14.5C14.2335 14.2718 14.5108 14.0218 14.7705 13.7517C15.4897 13.0037 16.0602 12.1156 16.4494 11.1383C16.8386 10.1609 17.039 9.11343 17.039 8.05556C17.039 6.99769 16.8386 5.95017 16.4494 4.97283C16.0602 3.99548 15.4897 3.10745 14.7705 2.35942C14.0513 1.61139 13.1975 1.01802 12.2579 0.613193C11.3182 0.208363 10.3111 0 9.29398 0Z" fill="white"/>
<path fill-rule="evenodd" clip-rule="evenodd" d="M33.2176 0H23.961V3.15017H33.2176V0ZM33.2176 0C34.2306 0 35.2336 0.203704 36.1695 0.59948C37.1054 0.995257 37.9558 1.57536 38.672 2.30666C39.3883 3.03796 39.9565 3.90614 40.3442 4.86162C40.7318 5.81711 40.9314 6.8412 40.9314 7.87542C40.9314 8.90963 40.7318 9.93372 40.3442 10.8892C39.9565 11.8447 39.3883 12.7129 38.672 13.4442C38.4134 13.7083 38.1372 13.9527 37.8458 14.1757C38.1372 14.3988 38.4134 14.6432 38.672 14.9073C39.3883 15.6386 39.9565 16.5068 40.3442 17.4623C40.7318 18.4178 40.9314 19.4419 40.9314 20.4761H37.8754C37.8754 19.8516 37.7549 19.2332 37.5209 18.6562C37.2868 18.0793 36.9437 17.5551 36.5112 17.1135C36.0787 16.6719 35.5652 16.3216 35.0001 16.0826C34.5629 15.8977 34.1015 15.7823 33.6318 15.7395C33.494 15.747 33.3559 15.7508 33.2176 15.7508L33.2176 12.5666C33.821 12.5666 34.4185 12.4452 34.976 12.2095C35.5334 11.9737 36.04 11.6282 36.4666 11.1926C36.8933 10.7569 37.2318 10.2398 37.4627 9.67064C37.6936 9.10148 37.8124 8.49146 37.8124 7.87542C37.8124 7.25937 37.6936 6.64935 37.4627 6.08019C37.2318 5.51104 36.8933 4.99389 36.4666 4.55828C36.04 4.12266 35.5334 3.77712 34.976 3.54137C34.4185 3.30561 33.821 3.18427 33.2176 3.18427V0ZM23.961 12.6007H33.2176V15.7508H23.961V12.6007ZM37.9145 20.497V29H41V20.497H37.9145Z" fill="black"/>
</svg>
