<svg width="37" height="23" viewBox="0 0 37 23" fill="none" xmlns="http://www.w3.org/2000/svg">
<path fill-rule="evenodd" clip-rule="evenodd" d="M8.38725 0H0V2.55556H8.38725V2.58323C8.93399 2.58323 9.47537 2.68166 9.9805 2.87291C10.4856 3.06417 10.9446 3.34449 11.3312 3.69788C11.7178 4.05127 12.0245 4.4708 12.2337 4.93253C12.4429 5.39425 12.5506 5.88912 12.5506 6.38889C12.5506 6.88866 12.4429 7.38353 12.2337 7.84525C12.0245 8.30698 11.7178 8.72651 11.3312 9.0799C10.9446 9.43329 10.4856 9.71361 9.98049 9.90486C9.47537 10.0961 8.93399 10.1946 8.38725 10.1946L8.38725 10.2222H0V12.7778H8.38725C8.51256 12.7778 8.63771 12.7747 8.76256 12.7686C9.18815 12.8033 9.60624 12.897 10.0023 13.0469C10.5144 13.2408 10.9796 13.525 11.3715 13.8832C11.7634 14.2414 12.0743 14.6667 12.2864 15.1348C12.4985 15.6028 12.6077 16.1045 12.6077 16.6111C12.6077 17.1177 12.4985 17.6194 12.2864 18.0874C12.0743 18.5555 11.7634 18.9808 11.3715 19.339C10.9796 19.6972 10.5144 19.9814 10.0023 20.1753C9.49029 20.3692 8.94148 20.4689 8.38725 20.4689L8.38725 20.4444H0V23L8.38725 23C9.3051 23 10.214 22.8347 11.062 22.5137C11.91 22.1926 12.6805 21.722 13.3295 21.1287C13.9785 20.5355 14.4933 19.8312 14.8446 19.056C15.1958 18.2809 15.3766 17.4501 15.3766 16.6111C15.3766 15.7721 15.1958 14.9413 14.8446 14.1662C14.4933 13.3911 13.9785 12.6867 13.3295 12.0935C13.0951 11.8792 12.8449 11.681 12.5809 11.5C12.8449 11.319 13.0951 11.1208 13.3295 10.9065C13.9785 10.3133 14.4933 9.60895 14.8446 8.83381C15.1958 8.05868 15.3766 7.22789 15.3766 6.38889C15.3766 5.54989 15.1958 4.7191 14.8446 3.94397C14.4933 3.16883 13.9785 2.46453 13.3295 1.87126C12.6805 1.278 11.91 0.807397 11.062 0.486325C10.214 0.165254 9.30511 0 8.38725 0Z" fill="white"/>
<path fill-rule="evenodd" clip-rule="evenodd" d="M29.9768 0H21.6234V2.49841H29.9768V0ZM29.9768 0C30.891 0 31.7962 0.161558 32.6408 0.47545C33.4854 0.789342 34.2528 1.24942 34.8992 1.82942C35.5456 2.40941 36.0583 3.09797 36.4082 3.85577C36.758 4.61357 36.9381 5.42578 36.9381 6.24602C36.9381 7.06626 36.758 7.87847 36.4082 8.63627C36.0583 9.39407 35.5456 10.0826 34.8992 10.6626C34.6657 10.8721 34.4165 11.0659 34.1536 11.2428C34.4165 11.4198 34.6657 11.6136 34.8992 11.823C35.5456 12.403 36.0583 13.0916 36.4082 13.8494C36.758 14.6072 36.9381 15.4194 36.9381 16.2397H34.1803C34.1803 15.7444 34.0715 15.2539 33.8603 14.7963C33.6491 14.3387 33.3394 13.923 32.9491 13.5728C32.5588 13.2225 32.0954 12.9447 31.5854 12.7552C31.1909 12.6086 30.7745 12.517 30.3506 12.483C30.2263 12.489 30.1016 12.492 29.9768 12.492L29.9768 12.4681V9.99363L29.9768 9.96658C30.5214 9.96658 31.0606 9.87034 31.5637 9.68337C32.0668 9.49639 32.5239 9.22234 32.9089 8.87685C33.294 8.53137 33.5994 8.12121 33.8078 7.66982C34.0162 7.21842 34.1234 6.73461 34.1234 6.24602C34.1234 5.75743 34.0162 5.27362 33.8078 4.82222C33.5994 4.37082 33.294 3.96067 32.9089 3.61519C32.5239 3.2697 32.0668 2.99565 31.5637 2.80867C31.0606 2.62169 30.5214 2.52546 29.9768 2.52546V0ZM21.6234 9.99363H29.9768V12.492H21.6234V9.99363ZM34.2155 16.2562V23H37V16.2562H34.2155Z" fill="white"/>
</svg>
