<?xml version="1.0" encoding="utf-8"?><svg viewBox="0 0 77 45" xmlns="http://www.w3.org/2000/svg" xmlns:xlink="http://www.w3.org/1999/xlink"><style>:root>svg{display:none}:root>svg:target{display:block}</style><svg fill="none" viewBox="0 0 70 40" id="logo-footer" xmlns="http://www.w3.org/2000/svg"><path fill-rule="evenodd" clip-rule="evenodd" d="M15.868 0H0v4.444h15.868v.049c1.034 0 2.058.17 3.014.503.956.333 1.824.82 2.555 1.435a6.672 6.672 0 011.708 2.147c.396.803.6 1.664.6 2.533 0 .87-.204 1.73-.6 2.533a6.672 6.672 0 01-1.708 2.147 8.113 8.113 0 01-2.555 1.435 9.19 9.19 0 01-3.014.504v.048H0v4.444h15.868c.237 0 .474-.005.71-.016a9.25 9.25 0 012.345.484 8.225 8.225 0 012.59 1.455 6.764 6.764 0 011.732 2.176c.4.814.607 1.687.607 2.568s-.206 1.753-.607 2.567a6.764 6.764 0 01-1.731 2.177 8.225 8.225 0 01-2.59 1.454 9.32 9.32 0 01-3.056.511v-.042H0V40h15.868c1.736 0 3.456-.287 5.06-.846 1.604-.558 3.062-1.377 4.29-2.408 1.228-1.032 2.202-2.257 2.866-3.605a9.593 9.593 0 001.007-4.252c0-1.46-.342-2.904-1.007-4.252-.664-1.348-1.638-2.573-2.866-3.605A12.85 12.85 0 0023.802 20c.5-.315.973-.66 1.416-1.032 1.228-1.032 2.202-2.257 2.866-3.605a9.594 9.594 0 001.007-4.252c0-1.459-.342-2.904-1.007-4.252-.664-1.348-1.638-2.573-2.866-3.605-1.228-1.031-2.686-1.85-4.29-2.408A15.431 15.431 0 0015.868 0zM56.713 0H40.909v4.345h15.804V0zm0 0c1.73 0 3.442.281 5.04.827 1.598.546 3.05 1.346 4.272 2.355 1.223 1.008 2.194 2.206 2.855 3.524a9.237 9.237 0 011.003 4.157c0 1.426-.34 2.839-1.003 4.157-.661 1.317-1.632 2.515-2.855 3.524a12.8 12.8 0 01-1.41 1.009c.497.307.969.645 1.41 1.009 1.223 1.008 2.194 2.206 2.855 3.524a9.237 9.237 0 011.003 4.157h-5.218c0-.861-.205-1.714-.605-2.51a6.635 6.635 0 00-1.724-2.128 8.238 8.238 0 00-2.58-1.422 9.366 9.366 0 00-2.336-.473c-.235.01-.47.015-.707.015v-4.392a9.31 9.31 0 003.002-.492 8.124 8.124 0 002.545-1.403 6.544 6.544 0 001.7-2.1 5.503 5.503 0 00.598-2.475c0-.85-.203-1.691-.597-2.477a6.545 6.545 0 00-1.7-2.099 8.124 8.124 0 00-2.546-1.402 9.31 9.31 0 00-3.002-.493V0zM40.909 17.38h15.804v4.345H40.909V17.38zm23.823 10.892V40H70V28.272h-5.268z" fill="#fff"/></svg><svg fill="none" viewBox="0 0 41 29" id="logo-top-1360" xmlns="http://www.w3.org/2000/svg"><path fill-rule="evenodd" clip-rule="evenodd" d="M9.294 0H0v3.222h9.294v.035a4.46 4.46 0 011.765.365c.56.242 1.069.595 1.497 1.04.429.446.768.975 1 1.557a4.965 4.965 0 010 3.673 4.815 4.815 0 01-1 1.557 4.606 4.606 0 01-1.496 1.04c-.56.24-1.16.365-1.766.365v.035H0v3.222h9.294c.139 0 .278-.004.416-.012a4.53 4.53 0 011.374.352 4.668 4.668 0 011.517 1.054 4.88 4.88 0 011.014 1.578 5.034 5.034 0 010 3.723 4.88 4.88 0 01-1.014 1.578c-.434.452-.95.81-1.517 1.054a4.52 4.52 0 01-1.79.37v-.03H0V29h9.294a7.487 7.487 0 002.964-.613 7.733 7.733 0 002.513-1.746 8.084 8.084 0 001.678-2.614 8.338 8.338 0 000-6.165 8.084 8.084 0 00-1.679-2.614c-.26-.27-.537-.52-.829-.748.292-.228.57-.478.83-.748a8.084 8.084 0 001.678-2.614 8.338 8.338 0 000-6.165 8.084 8.084 0 00-1.679-2.614A7.733 7.733 0 0012.258.613 7.487 7.487 0 009.294 0z" fill="#fff"/><path fill-rule="evenodd" clip-rule="evenodd" d="M33.218 0H23.96v3.15h9.257V0zm0 0c1.013 0 2.016.204 2.951.6a7.704 7.704 0 012.503 1.707 7.89 7.89 0 011.672 2.555 8.02 8.02 0 010 6.027 7.89 7.89 0 01-2.498 3.287 7.89 7.89 0 012.498 3.287 8.02 8.02 0 01.587 3.013h-3.056c0-.624-.12-1.243-.354-1.82a4.764 4.764 0 00-1.01-1.543 4.653 4.653 0 00-1.51-1.03 4.579 4.579 0 00-1.37-.343 7.621 7.621 0 01-.413.01v-3.183c.603 0 1.2-.122 1.758-.357a4.59 4.59 0 001.49-1.017 4.7 4.7 0 00.997-1.522 4.777 4.777 0 000-3.59 4.698 4.698 0 00-.996-1.523 4.59 4.59 0 00-1.491-1.017 4.513 4.513 0 00-1.758-.357V0zM23.96 12.6h9.257v3.15H23.96V12.6zm13.953 7.897V29H41v-8.503h-3.086z" fill="#000"/></svg><svg fill="none" viewBox="0 0 37 23" id="logo-top-320" xmlns="http://www.w3.org/2000/svg"><path fill-rule="evenodd" clip-rule="evenodd" d="M8.387 0H0v2.556h8.387v.027c.547 0 1.088.099 1.593.29a4.21 4.21 0 011.351.825c.387.353.694.773.903 1.235.209.461.317.956.317 1.456s-.108.995-.317 1.456c-.21.462-.516.882-.903 1.235a4.21 4.21 0 01-1.35.825 4.506 4.506 0 01-1.594.29v.027H0v2.556h8.387c.126 0 .25-.003.376-.01a4.55 4.55 0 011.24.279c.511.194.977.478 1.368.836.392.358.703.784.915 1.252.213.468.322.97.322 1.476 0 .507-.11 1.008-.322 1.476a3.854 3.854 0 01-.915 1.252 4.267 4.267 0 01-1.369.836 4.566 4.566 0 01-1.615.294v-.025H0V23h8.387c.918 0 1.827-.165 2.675-.486a7.066 7.066 0 002.268-1.385 6.383 6.383 0 001.515-2.073 5.916 5.916 0 00.532-2.445c0-.839-.181-1.67-.532-2.445a6.384 6.384 0 00-1.516-2.072 6.847 6.847 0 00-.748-.594c.264-.181.514-.38.748-.594a6.384 6.384 0 001.516-2.072 5.917 5.917 0 00.532-2.445c0-.84-.181-1.67-.532-2.445a6.385 6.385 0 00-1.516-2.073A7.066 7.066 0 0011.063.486 7.564 7.564 0 008.387 0zM29.977 0h-8.354v2.498h8.354V0zm0 0c.914 0 1.82.162 2.664.475a7.062 7.062 0 012.258 1.354 6.249 6.249 0 011.51 2.027c.349.758.53 1.57.53 2.39 0 .82-.181 1.632-.53 2.39a6.249 6.249 0 01-1.51 2.027c-.233.21-.483.403-.745.58.262.177.512.37.745.58a6.25 6.25 0 011.51 2.026c.349.758.53 1.57.53 2.39H34.18a3.44 3.44 0 00-.32-1.443 3.772 3.772 0 00-.91-1.223 4.262 4.262 0 00-1.365-.818 4.605 4.605 0 00-1.234-.272 7.755 7.755 0 01-.374.009V9.967c.544 0 1.084-.097 1.587-.284.503-.187.96-.46 1.345-.806.385-.346.69-.756.899-1.207.208-.452.315-.935.315-1.424 0-.489-.107-.972-.315-1.424a3.721 3.721 0 00-.9-1.207 4.206 4.206 0 00-1.344-.806 4.562 4.562 0 00-1.587-.284V0zm-8.354 9.994h8.354v2.498h-8.354V9.994zm12.592 6.262V23H37v-6.744h-2.785z" fill="#fff"/></svg><svg fill="none" viewBox="0 0 77 45" id="logo-top-768" xmlns="http://www.w3.org/2000/svg"><path fill-rule="evenodd" clip-rule="evenodd" d="M17.454 0H0v5h17.454v.054c1.138 0 2.265.193 3.316.567a8.874 8.874 0 012.811 1.614 7.48 7.48 0 011.878 2.416c.436.903.66 1.871.66 2.849 0 .978-.224 1.946-.66 2.85a7.48 7.48 0 01-1.878 2.415 8.874 8.874 0 01-2.81 1.614 9.908 9.908 0 01-3.317.567V20H0v5h17.454c.261 0 .522-.006.782-.018a9.978 9.978 0 012.58.545 8.996 8.996 0 012.85 1.636 7.585 7.585 0 011.903 2.448c.441.916.669 1.898.669 2.889 0 .991-.228 1.973-.669 2.889a7.585 7.585 0 01-1.904 2.448 8.996 8.996 0 01-2.85 1.636c-1.065.38-2.207.575-3.36.575V40H0v5h17.454c1.91 0 3.802-.323 5.567-.952a14.896 14.896 0 004.719-2.71c1.35-1.16 2.422-2.538 3.153-4.055A10.992 10.992 0 0032 32.5c0-1.642-.376-3.267-1.107-4.784-.731-1.516-1.803-2.894-3.153-4.055a14.146 14.146 0 00-1.558-1.161c.55-.354 1.07-.742 1.558-1.161 1.35-1.16 2.422-2.539 3.153-4.055A10.992 10.992 0 0032 12.5c0-1.642-.376-3.267-1.107-4.784-.731-1.516-1.803-2.894-3.153-4.055a14.896 14.896 0 00-4.72-2.71A16.633 16.633 0 0017.455 0zM62.384 0H45v4.888h17.384V0zm0 0c1.903 0 3.787.316 5.544.93 1.758.614 3.355 1.515 4.7 2.65 1.345 1.134 2.412 2.481 3.14 3.964a10.584 10.584 0 011.103 4.676c0 1.605-.375 3.194-1.103 4.677-.728 1.483-1.795 2.83-3.14 3.965-.486.41-1.004.789-1.552 1.135.548.346 1.066.725 1.552 1.135 1.345 1.135 2.412 2.482 3.14 3.965a10.583 10.583 0 011.103 4.676h-5.74a6.39 6.39 0 00-.665-2.824 7.434 7.434 0 00-1.896-2.394 9.002 9.002 0 00-2.838-1.6 10.098 10.098 0 00-2.57-.532c-.259.012-.518.018-.778.018V19.5c1.133 0 2.256-.189 3.303-.554a8.881 8.881 0 002.8-1.578 7.335 7.335 0 001.87-2.362c.433-.883.657-1.83.657-2.786s-.224-1.902-.657-2.785a7.333 7.333 0 00-1.87-2.362 8.881 8.881 0 00-2.8-1.578 10.036 10.036 0 00-3.303-.554V0zM45 19.553h17.384v4.888H45v-4.888zm26.205 12.253V45H77V31.806h-5.795z" fill="#fff"/></svg></svg>