<?xml version="1.0" encoding="utf-8"?><svg viewBox="0 0 64 44" xmlns="http://www.w3.org/2000/svg" xmlns:xlink="http://www.w3.org/1999/xlink"><style>:root>svg{display:none}:root>svg:target{display:block}</style><svg fill="none" viewBox="0 0 41 16" id="arrow-40" xmlns="http://www.w3.org/2000/svg"><path d="M40.707 8.707a1 1 0 000-1.414L34.343.929a1 1 0 10-1.414 1.414L38.586 8l-5.657 5.657a1 1 0 001.414 1.414l6.364-6.364zM0 9h40V7H0v2z" fill="#fff"/></svg><svg viewBox="0 0 12 22" id="facebook" xmlns="http://www.w3.org/2000/svg"><path d="M12 4V0H8a4 4 0 00-4 4v4H0v4h4v10h4V12h4V8H8V4h4z"/></svg><svg viewBox="0 0 22 22" id="instagram" xmlns="http://www.w3.org/2000/svg"><path d="M18.857 0H3.143A3.152 3.152 0 000 3.143v15.714A3.152 3.152 0 003.143 22h15.714A3.152 3.152 0 0022 18.857V3.143A3.152 3.152 0 0018.857 0zM11 7.333A3.67 3.67 0 0114.667 11 3.67 3.67 0 0111 14.667 3.67 3.67 0 017.333 11 3.67 3.67 0 0111 7.333zm7.857 11.524H3.143V9.43H4.38A6.813 6.813 0 004.19 11a6.81 6.81 0 0013.62 0 6.753 6.753 0 00-.19-1.571h1.237v9.428zm0-11.524h-4.19v-4.19h4.19v4.19z"/></svg><svg fill="none" viewBox="0 0 23 17" id="mail" xmlns="http://www.w3.org/2000/svg"><path fill-rule="evenodd" clip-rule="evenodd" d="M1.518 0h20.189l.147.146 1 1 .146.147V15.707l-.146.147-1 1-.147.146H1.518l-.139-.116-1.2-1-.179-.15V1.266l.18-.15 1.2-1L1.517 0zm.362 1L1 1.734v13.532l.88.734h19.413l.707-.707V1.707L21.293 1H1.88zm4.788 5.374l-4.5-4 .664-.748 4.5 4L11.5 9.331l8.668-7.705.664.748-6.719 5.972 6.696 5.26-.618.787-6.698-5.263-1.676 1.257-.317.282-.317-.282L9.507 9.13 2.81 14.393l-.618-.786 6.696-5.261-2.22-1.972z" fill="#EBE8E1"/></svg><svg viewBox="0 0 64 44" fill="none" id="menu" xmlns="http://www.w3.org/2000/svg"><path fill-rule="evenodd" clip-rule="evenodd" d="M0 0h64v4.002H0V0zm0 19.458h64v4.003H0v-4.003zm64 20.54H0V44h64v-4.002z" fill="#FFFDFD"/></svg><svg fill="none" viewBox="0 0 20 20" id="phone" xmlns="http://www.w3.org/2000/svg"><path fill-rule="evenodd" clip-rule="evenodd" d="M10.561 0s4.38 1.364 6.32 3.365C18.807 5.355 20 9.71 20 9.71l-.983.932s-1.195-4.33-3.11-6.316C13.966 2.315 9.578.932 9.578.932L10.561 0zM5.364 8.052l.294-.29L6.824 6.61v-1.1L4.492 3.209H3.38L1.03 5.528a36.24 36.24 0 00-.017.611 18.8 18.8 0 00.031 1.762c.043.515.157 1.194.266 1.767.053.282.104.529.14.705l.003.011a151.12 151.12 0 001.317 1.343c.871.877 1.952 1.944 2.822 2.735 1.067.972 2.508 2.158 3.692 3.109a160.622 160.622 0 001.815 1.435h4.104l2.33-2.301v-1.1l-2.331-2.302h-1.195l-1.679 1.243-.268.199H10.437l-.258-.176.572-.818h.974l1.947-1.442h1.947l2.92 2.884v1.923L15.62 20H10.75s-3.658-2.82-5.842-4.807C3.13 13.573.53 10.867.53 10.867S.135 9.121.041 7.983c-.094-1.123 0-2.884 0-2.884l2.92-2.884H4.91L7.83 5.099V7.02L6.37 8.464H5.364v-.412zM6.37 9.425l-.828.565-.178-.255v-1.27l1.006-.001v.96zm0 0l-.828.565.001.002.003.004.01.015.039.054.14.195c.12.164.287.392.483.648.384.501.906 1.148 1.387 1.623.482.476 1.137.99 1.644 1.37a31.489 31.489 0 00.854.616l.055.038.015.01.004.003h.001l.573-.817s-1.573-1.073-2.434-1.923c-.86-.85-1.947-2.403-1.947-2.403zm7.302-2.884c-.974-.91-2.857-1.877-2.857-1.877l-.98 1.021s1.893.92 2.863 1.817c.998.924 2.065 2.795 2.065 2.795l.98-1.021s-1.09-1.82-2.071-2.735z" fill="#EBE8E1"/></svg><svg fill="none" viewBox="0 0 20 18" id="phone-top" xmlns="http://www.w3.org/2000/svg"><path d="M4.677.04h.974l2.92 2.883v1.923l-1.46 1.442v.962s1.086 1.553 1.947 2.403c.86.85 2.434 1.923 2.434 1.923h.974l1.947-1.442h1.947l2.92 2.884v1.923l-2.92 2.884h-4.868s-3.658-2.82-5.841-4.807C3.87 11.398 1.27 8.692 1.27 8.692S.876 6.946.782 5.808c-.094-1.123 0-2.885 0-2.885L3.703.04h.974z" fill="#7E7D79"/></svg><svg fill="none" viewBox="0 0 19 22" id="user" xmlns="http://www.w3.org/2000/svg"><path fill-rule="evenodd" clip-rule="evenodd" d="M6.5 5c0-1.267.407-2.122 1.007-2.665C8.116 1.785 8.984 1.5 10 1.5c1.016 0 1.884.284 2.493.835.6.543 1.007 1.398 1.007 2.665 0 1.284-.42 2.692-1.095 3.77C11.718 9.866 10.85 10.5 10 10.5c-.85 0-1.718-.634-2.405-1.73C6.92 7.692 6.5 6.284 6.5 5zm5.556 5.696c.462-.38.864-.865 1.196-1.395C14.024 8.07 14.5 6.478 14.5 5c0-1.495-.489-2.64-1.336-3.406C12.325.834 11.194.5 10 .5 8.807.5 7.675.835 6.836 1.594 5.99 2.36 5.5 3.505 5.5 5c0 1.478.476 3.07 1.248 4.301a5.79 5.79 0 001.19 1.391 11.436 11.436 0 00-4.597 1.972c-.853.623-1.556 1.336-2.049 2.072C.802 15.466.5 16.247.5 17c0 1.557 1.261 2.681 2.941 3.392C5.151 21.116 7.473 21.5 10 21.5s4.73-.384 6.322-1.113C17.907 19.66 19 18.526 19 17c0-1.456-1.01-3.086-2.576-4.324a10.186 10.186 0 00-4.368-1.98zM10 11.5c-2.37 0-4.518.839-6.07 1.972-.774.566-1.39 1.198-1.807 1.82C1.702 15.92 1.5 16.51 1.5 17c0 .928.754 1.804 2.33 2.471C5.38 20.127 7.558 20.5 10 20.5c2.444 0 4.49-.374 5.906-1.023C17.328 18.825 18 17.96 18 17c0-1.029-.755-2.4-2.196-3.54-1.42-1.123-3.438-1.96-5.804-1.96z" fill="#EBE8E1"/></svg><svg viewBox="0 0 22 25" id="video-play" xmlns="http://www.w3.org/2000/svg"><path stroke="#FFF" stroke-width="2" fill="none" d="M19.875 11.766L1.607 22.314V1.218l18.268 10.548z"/></svg><svg viewBox="0 0 22 14" id="vk" xmlns="http://www.w3.org/2000/svg"><path d="M13.655 10.393c.81-.261 1.845 1.726 2.947 2.487.828.576 1.462.452 1.462.452l2.938-.043s1.536-.094.81-1.314c-.06-.102-.425-.905-2.187-2.558-1.842-1.728-1.593-1.448.625-4.437 1.352-1.822 1.892-2.934 1.723-3.408-.162-.456-1.155-.338-1.155-.338l-3.311.023c-.323.001-.596.1-.72.436-.003.003-.526 1.41-1.223 2.605-1.473 2.53-2.061 2.664-2.305 2.506-.56-.367-.418-1.47-.418-2.254 0-2.452.366-3.474-.716-3.738-.36-.088-.625-.145-1.546-.154C9.4.64 8.4.658 7.834.936c-.377.19-.665.603-.49.627.22.03.713.135.977.495.34.468.33 1.514.33 1.514s.193 2.886-.458 3.244c-.446.246-1.057-.255-2.371-2.552C5.15 3.09 4.644 1.792 4.644 1.792s-.098-.241-.276-.373a1.362 1.362 0 00-.508-.207l-3.142.02s-.473.014-.646.222c-.154.185-.013.566-.013.566s2.462 5.822 5.249 8.755c2.555 2.692 5.46 2.514 5.46 2.514h1.315s.397-.046.6-.264c.19-.204.181-.585.181-.585s-.026-1.785.791-2.047z"/></svg></svg>