<svg viewBox="0 0 22 22" xmlns="http://www.w3.org/2000/svg">
<path d="M18.8571 0H3.14286C1.41429 0 0 1.41429 0 3.14286V18.8571C0 20.5857 1.41429 22 3.14286 22H18.8571C20.5857 22 22 20.5857 22 18.8571V3.14286C22 1.41429 20.5857 0 18.8571 0ZM11 7.33333C13.0219 7.33333 14.6667 8.9781 14.6667 11C14.6667 13.0219 13.0219 14.6667 11 14.6667C8.9781 14.6667 7.33333 13.0219 7.33333 11C7.33333 8.9781 8.9781 7.33333 11 7.33333ZM18.8571 18.8571H3.14286V9.42857H4.3801C4.25606 9.94324 4.19242 10.4706 4.19048 11C4.19048 12.806 4.90791 14.538 6.18494 15.8151C7.46197 17.0921 9.194 17.8095 11 17.8095C12.806 17.8095 14.538 17.0921 15.8151 15.8151C17.0921 14.538 17.8095 12.806 17.8095 11C17.8081 10.4706 17.7445 9.94314 17.6199 9.42857H18.8571V18.8571ZM18.8571 7.33333H14.6667V3.14286H18.8571V7.33333Z"/>
</svg>
