<svg viewBox="0 0 14 14" xmlns="http://www.w3.org/2000/svg">
<path d="M12 0H2C0.9 0 0 0.9 0 2V12C0 13.1 0.9 14 2 14H12C13.1 14 14 13.1 14 12V2C14 0.9 13.1 0 12 0ZM7 4.66667C8.28667 4.66667 9.33333 5.71333 9.33333 7C9.33333 8.28667 8.28667 9.33333 7 9.33333C5.71333 9.33333 4.66667 8.28667 4.66667 7C4.66667 5.71333 5.71333 4.66667 7 4.66667ZM12 12H2V6H2.78733C2.7084 6.32751 2.6679 6.66311 2.66667 7C2.66667 8.14927 3.12321 9.25147 3.93587 10.0641C4.74853 10.8768 5.85073 11.3333 7 11.3333C8.14927 11.3333 9.25147 10.8768 10.0641 10.0641C10.8768 9.25147 11.3333 8.14927 11.3333 7C11.3324 6.66309 11.2919 6.32746 11.2127 6H12V12ZM12 4.66667H9.33333V2H12V4.66667Z"/>
</svg>
