<svg width="23" height="17" viewBox="0 0 23 17" fill="none" xmlns="http://www.w3.org/2000/svg">
<path fill-rule="evenodd" clip-rule="evenodd" d="M1.51827 0H1.69937H21.5H21.7071L21.8536 0.146447L22.8536 1.14645L23 1.29289V1.5V15.5V15.7071L22.8536 15.8536L21.8536 16.8536L21.7071 17H21.5H1.69937H1.51827L1.37918 16.884L0.179808 15.884L0 15.7341V15.5V1.5V1.26589L0.179808 1.11597L1.37918 0.115972L1.51827 0ZM1.88047 1L1 1.73411V15.2659L1.88047 16H21.2929L22 15.2929V1.70711L21.2929 1H1.88047ZM6.66782 6.3737L2.16782 2.3737L2.83218 1.6263L7.33218 5.6263L11.5 9.33102L20.1678 1.6263L20.8322 2.3737L14.1133 8.34602L20.8089 13.6068L20.1911 14.3932L13.4929 9.13031L11.8166 10.3875L11.5 10.669L11.1834 10.3875L9.50708 9.13031L2.80891 14.3932L2.19109 13.6068L8.88668 8.34602L6.66782 6.3737Z" fill="#EBE8E1"/>
</svg>
