<svg width="20" height="20" viewBox="0 0 20 20" fill="none" xmlns="http://www.w3.org/2000/svg">
<path fill-rule="evenodd" clip-rule="evenodd" d="M10.5613 0C10.5613 0 14.9419 1.36449 16.8801 3.36481C18.8085 5.35511 20 9.70988 20 9.70988L19.0169 10.6418C19.0169 10.6418 17.8217 6.31237 15.9065 4.32618C13.9671 2.31496 9.57816 0.931869 9.57816 0.931869L10.5613 0ZM5.36356 8.05231L5.65849 7.76108L6.82393 6.61027L6.82393 6.06065L6.82393 5.51071L4.49227 3.20831L3.93533 3.20831L3.37872 3.20831L1.03014 5.52741C1.02395 5.69398 1.01728 5.90488 1.01257 6.13904C1.00102 6.71354 1.00212 7.39261 1.04443 7.90092C1.08732 8.41624 1.20082 9.0955 1.30951 9.66809C1.36294 9.94962 1.41356 10.1968 1.45077 10.3734L1.45303 10.3842C1.5175 10.4507 1.59659 10.5322 1.68822 10.6263C1.95824 10.9036 2.33676 11.2902 2.77043 11.7269C3.64111 12.6038 4.72171 13.6705 5.59168 14.4623C6.65934 15.4341 8.09962 16.6198 9.28406 17.5707C9.874 18.0443 10.3963 18.4563 10.771 18.7498C10.8987 18.8499 11.0092 18.9361 11.0994 19.0063L11.6121 19.0063H13.1855H14.7589H15.2025L17.5333 16.7047V16.155L17.5333 15.6051L15.2017 13.3027H14.6448H14.0154L14.0067 13.3027L12.328 14.5459L12.0595 14.7448H11.724H11.724H11.7239H11.7238H11.7231H11.7206H11.7109H11.6747H11.5519H11.2372H10.9225H10.7998H10.7635L10.7538 14.7448L10.7513 14.7448H10.7506H10.7505L10.7505 14.7448L10.7504 14.7448H10.4368L10.1789 14.5688L10.751 13.7511L11.2378 13.7511H11.7245L13.6717 12.309L14.6453 12.309L15.6189 12.309L18.5396 15.1931L18.5396 16.1545V17.1159L15.6189 20L13.1849 20H10.751C10.751 20 7.09294 17.1805 4.90946 15.1931C3.13032 13.5738 0.528321 10.867 0.528321 10.867C0.528321 10.867 0.136253 9.12087 0.0415299 7.98285C-0.0519049 6.86032 0.0415298 5.09874 0.0415298 5.09874L2.9623 2.21463L3.93587 2.21462L4.90946 2.21463L7.83022 5.09873L7.8302 6.06011L7.83022 7.02148L6.36984 8.46354L5.36356 8.46408L5.36356 8.05231ZM6.36984 9.42491L5.54172 9.98987L5.36356 9.73512L5.36356 9.42544V9.4254V9.42524V9.4246L5.36356 9.42211L5.36356 9.41249V9.37674L5.36356 9.2555V8.94476V8.63402V8.51278L5.36356 8.47703V8.46741V8.46492L5.36356 8.46429L5.36356 8.46413V8.46409V8.46408L6.36984 8.46354L6.36984 8.94422L6.36984 9.42491ZM6.36984 9.42491C5.54172 9.98987 5.54175 9.98993 5.5418 9.98998L5.5419 9.99013L5.54217 9.99052L5.54303 9.99174L5.54591 9.99585L5.55627 10.0106L5.59459 10.0647C5.62761 10.1111 5.67525 10.1777 5.73493 10.2599C5.85412 10.4242 6.02215 10.6522 6.21823 10.908C6.60249 11.4092 7.12357 12.0555 7.60527 12.5312C8.08698 13.0068 8.74154 13.5214 9.24912 13.9008C9.50813 14.0944 9.73901 14.2604 9.90537 14.3781C9.98867 14.437 10.0561 14.484 10.1031 14.5166L10.1579 14.5545L10.1728 14.5647L10.177 14.5675L10.1782 14.5684L10.1786 14.5687L10.1788 14.5688C10.1788 14.5688 10.1789 14.5688 10.751 13.7511C10.751 13.7511 9.17774 12.6783 8.317 11.8283C7.45627 10.9784 6.36984 9.42491 6.36984 9.42491ZM13.6717 6.5408C12.6979 5.63192 10.8152 4.66386 10.8152 4.66386L9.83491 5.68518C9.83491 5.68518 11.7285 6.60445 12.6981 7.50216C13.6962 8.42622 14.7627 10.2971 14.7627 10.2971L15.743 9.27583C15.743 9.27583 14.6533 7.45694 13.6717 6.5408Z" fill="#EBE8E1"/>
</svg>
