<svg width="20" height="18" viewBox="0 0 20 18" fill="none" xmlns="http://www.w3.org/2000/svg">
<path d="M4.67705 0.0392943C5.05726 0.0392943 5.65064 0.0392961 5.65064 0.0392961L8.5714 2.9234C8.5714 2.9234 8.57139 3.50934 8.57139 3.88478C8.57139 4.26022 8.5714 4.84615 8.5714 4.84615L7.11102 6.28821C7.11102 6.28821 7.11102 6.58117 7.11102 6.76889C7.11102 6.95661 7.11102 7.24958 7.11102 7.24958C7.11102 7.24958 8.19745 8.80307 9.05818 9.653C9.91892 10.5029 11.4922 11.5757 11.4922 11.5757C11.4922 11.5757 11.7888 11.5757 11.9789 11.5757C12.169 11.5757 12.4657 11.5757 12.4657 11.5757L14.4129 10.1337C14.4129 10.1337 15.0063 10.1337 15.3865 10.1337C15.7667 10.1337 16.36 10.1337 16.36 10.1337L19.2808 13.0178C19.2808 13.0178 19.2808 13.6037 19.2808 13.9792C19.2808 14.3546 19.2808 14.9405 19.2808 14.9405L16.3601 17.8247C16.3601 17.8247 14.8766 17.8247 13.9261 17.8247C12.9756 17.8247 11.4922 17.8247 11.4922 17.8247C11.4922 17.8247 7.83412 15.0051 5.65064 13.0178C3.8715 11.3985 1.2695 8.69164 1.2695 8.69164C1.2695 8.69164 0.877434 6.94554 0.78271 5.80752C0.689276 4.68499 0.78271 2.92341 0.78271 2.92341L3.70348 0.039296C3.70348 0.039296 4.29685 0.0392943 4.67705 0.0392943Z" fill="#7E7D79"/>
</svg>
