<svg width="19" height="22" viewBox="0 0 19 22" fill="none" xmlns="http://www.w3.org/2000/svg">
<path fill-rule="evenodd" clip-rule="evenodd" d="M6.5 5C6.5 3.73317 6.90667 2.87834 7.507 2.33526C8.11583 1.78449 8.98425 1.5 10 1.5C11.0158 1.5 11.8842 1.78449 12.493 2.33526C13.0933 2.87834 13.5 3.73317 13.5 5C13.5 6.28359 13.0805 7.692 12.4048 8.76998C11.7179 9.86586 10.8501 10.5 10 10.5C9.14985 10.5 8.28214 9.86586 7.59523 8.76998C6.91953 7.692 6.5 6.28359 6.5 5ZM12.0563 10.6963C12.5176 10.3166 12.9202 9.83059 13.2521 9.30109C14.0241 8.06942 14.5 6.47783 14.5 5C14.5 3.5054 14.0112 2.36024 13.1639 1.59367C12.325 0.834796 11.1934 0.5 10 0.5C8.80661 0.5 7.67503 0.834796 6.83614 1.59367C5.98876 2.36024 5.5 3.5054 5.5 5C5.5 6.47783 5.9759 8.06942 6.74792 9.30109C7.07867 9.82876 7.47963 10.3132 7.9389 10.6923C6.16621 11.0244 4.58272 11.7576 3.34117 12.6642C2.48771 13.2875 1.78505 14.0004 1.29202 14.7355C0.802003 15.4661 0.5 16.248 0.5 17C0.5 18.5567 1.76097 19.6813 3.44115 20.3924C5.1509 21.1161 7.47267 21.5 10 21.5C12.5265 21.5 14.7302 21.1164 16.3223 20.3865C17.9069 19.6601 19 18.526 19 17C19 15.5436 17.99 13.9144 16.4241 12.6759C15.2731 11.7654 13.7822 11.031 12.0563 10.6963ZM10 11.5C7.63049 11.5 5.48222 12.339 3.93091 13.4718C3.15568 14.0379 2.54032 14.6696 2.12251 15.2925C1.70168 15.92 1.5 16.5094 1.5 17C1.5 17.9285 2.25375 18.804 3.83093 19.4715C5.37854 20.1266 7.55677 20.5 10 20.5C12.444 20.5 14.4904 20.1263 15.9056 19.4775C17.3284 18.8252 18 17.9593 18 17C18 15.9711 17.2452 14.6003 15.8038 13.4602C14.3834 12.3367 12.3665 11.5 10 11.5Z" fill="#EBE8E1"/>
</svg>
