<svg viewBox="0 0 14 10" xmlns="http://www.w3.org/2000/svg">
<path d="M8.68969 7.15923C9.20446 6.99284 9.86354 8.25769 10.5652 8.74177C11.0918 9.10846 11.4951 9.0293 11.4951 9.0293L13.3652 9.00238C13.3652 9.00238 14.3425 8.94207 13.8805 8.16561C13.8422 8.101 13.6096 7.59 12.4885 6.53838C11.3163 5.4383 11.4752 5.61654 12.8865 3.71469C13.7464 2.55538 14.0905 1.8473 13.9828 1.54577C13.8794 1.25554 13.2478 1.33092 13.2478 1.33092L11.1408 1.34546C10.9356 1.346 10.7617 1.40954 10.6825 1.62277C10.6809 1.62492 10.3482 2.51984 9.90446 3.28069C8.967 4.89015 8.59277 4.97577 8.43769 4.87507C8.08177 4.64192 8.17169 3.93977 8.17169 3.44061C8.17169 1.88069 8.40431 1.23023 7.71615 1.06223C7.48623 1.00623 7.31823 0.969612 6.73185 0.964227C5.98231 0.95292 5.34585 0.964227 4.98508 1.14138C4.74546 1.26146 4.56185 1.52477 4.67331 1.53984C4.81331 1.55869 5.12723 1.626 5.29523 1.85538C5.51115 2.15261 5.50469 2.81869 5.50469 2.81869C5.50469 2.81869 5.628 4.65538 5.21392 4.88315C4.92961 5.0393 4.54085 4.72054 3.70461 3.25915C3.27761 2.51177 2.95508 1.68577 2.95508 1.68577C2.95508 1.68577 2.89261 1.5323 2.77954 1.4483C2.64492 1.34869 2.45646 1.31692 2.45646 1.31692L0.456614 1.32984C0.456614 1.32984 0.156153 1.33846 0.0457682 1.47092C-0.0522318 1.5883 0.0376913 1.83061 0.0376913 1.83061C0.0376913 1.83061 1.60408 5.53577 3.37777 7.40207C5.00392 9.11546 6.85192 9.00184 6.85192 9.00184H7.68923C7.68923 9.00184 7.94177 8.97277 8.071 8.83384C8.19161 8.70461 8.18623 8.46177 8.18623 8.46177C8.18623 8.46177 8.16954 7.32615 8.68969 7.15923V7.15923Z"/>
</svg>
