<svg viewBox="0 0 22 14" xmlns="http://www.w3.org/2000/svg">
<path d="M13.6552 10.3931C14.4642 10.1316 15.4999 12.1192 16.6024 12.8799C17.4299 13.4562 18.0637 13.3318 18.0637 13.3318L21.0024 13.2895C21.0024 13.2895 22.5382 13.1947 21.8122 11.9745C21.7521 11.873 21.3865 11.07 19.6249 9.41746C17.7828 7.68877 18.0324 7.96885 20.2502 4.98023C21.6015 3.15846 22.1422 2.04577 21.9729 1.57192C21.8105 1.11585 20.8179 1.23431 20.8179 1.23431L17.5069 1.25715C17.1845 1.258 16.9112 1.35785 16.7869 1.69292C16.7843 1.69631 16.2614 3.10262 15.5642 4.29823C14.091 6.82738 13.5029 6.96192 13.2592 6.80369C12.6999 6.43731 12.8412 5.33392 12.8412 4.54954C12.8412 2.09823 13.2068 1.07608 12.1254 0.812077C11.7641 0.724077 11.5001 0.666538 10.5786 0.658077C9.40077 0.640307 8.40062 0.658077 7.8337 0.936461C7.45716 1.12515 7.16862 1.53892 7.34377 1.56262C7.56377 1.59223 8.05708 1.698 8.32108 2.05846C8.66039 2.52554 8.65024 3.57223 8.65024 3.57223C8.65024 3.57223 8.844 6.45846 8.19331 6.81638C7.74654 7.06177 7.13562 6.56085 5.82154 4.26438C5.15054 3.08992 4.6437 1.79192 4.6437 1.79192C4.6437 1.79192 4.54554 1.55077 4.36785 1.41877C4.15631 1.26223 3.86016 1.21231 3.86016 1.21231L0.717543 1.23262C0.717543 1.23262 0.245389 1.24615 0.071928 1.45431C-0.082072 1.63877 0.0592356 2.01954 0.0592356 2.01954C0.0592356 2.01954 2.5207 7.84192 5.30793 10.7747C7.86331 13.4672 10.7673 13.2886 10.7673 13.2886H12.0831C12.0831 13.2886 12.4799 13.2429 12.683 13.0246C12.8725 12.8215 12.8641 12.4399 12.8641 12.4399C12.8641 12.4399 12.8379 10.6554 13.6552 10.3931Z"/>
</svg>
